<mxfile host="app.diagrams.net" modified="2023-01-26T16:21:31.584Z" agent="5.0 (Windows NT 10.0; Win64; x64) AppleWebKit/537.36 (KHTML, like Gecko) Chrome/94.0.4606.71 Safari/537.36" etag="bbmZK279IIrGgVl9ItqS" version="20.8.11" type="github">
  <diagram name="Page-1" id="rMZNAS54zJpwGnl3afOn">
    <mxGraphModel dx="1434" dy="764" grid="1" gridSize="10" guides="1" tooltips="1" connect="1" arrows="1" fold="1" page="1" pageScale="1" pageWidth="827" pageHeight="1169" math="0" shadow="0">
      <root>
        <mxCell id="0" />
        <mxCell id="1" parent="0" />
        <mxCell id="sCXfxisx9N2vsZH-kE6X-1" value="&lt;font style=&quot;font-size: 16px;&quot;&gt;&lt;b&gt;main()&lt;/b&gt;&lt;/font&gt;" style="rounded=0;whiteSpace=wrap;html=1;align=center;" parent="1" vertex="1">
          <mxGeometry x="160" y="120" width="120" height="80" as="geometry" />
        </mxCell>
        <mxCell id="sCXfxisx9N2vsZH-kE6X-2" value="int l_int_mer" style="rounded=0;whiteSpace=wrap;html=1;align=center;" parent="1" vertex="1">
          <mxGeometry x="280" y="120" width="240" height="80" as="geometry" />
        </mxCell>
        <mxCell id="sCXfxisx9N2vsZH-kE6X-3" value="&lt;b&gt;&lt;font style=&quot;font-size: 14px;&quot;&gt;initCases()&lt;/font&gt;&lt;/b&gt;" style="rounded=0;whiteSpace=wrap;html=1;fontSize=16;" parent="1" vertex="1">
          <mxGeometry x="180" y="280" width="120" height="60" as="geometry" />
        </mxCell>
        <mxCell id="sCXfxisx9N2vsZH-kE6X-4" value="" style="rounded=0;whiteSpace=wrap;html=1;fontSize=16;" parent="1" vertex="1">
          <mxGeometry x="300" y="280" width="200" height="60" as="geometry" />
        </mxCell>
        <mxCell id="sCXfxisx9N2vsZH-kE6X-7" value="" style="endArrow=classic;html=1;rounded=0;fontSize=14;exitX=0.336;exitY=1.025;exitDx=0;exitDy=0;exitPerimeter=0;" parent="1" source="sCXfxisx9N2vsZH-kE6X-1" edge="1">
          <mxGeometry width="50" height="50" relative="1" as="geometry">
            <mxPoint x="340" y="300" as="sourcePoint" />
            <mxPoint x="200" y="280" as="targetPoint" />
          </mxGeometry>
        </mxCell>
        <mxCell id="sCXfxisx9N2vsZH-kE6X-8" value="&lt;font style=&quot;font-size: 10px;&quot;&gt;int x_int_mer&lt;/font&gt;" style="text;html=1;align=center;verticalAlign=middle;resizable=0;points=[];autosize=1;strokeColor=none;fillColor=none;fontSize=14;" parent="1" vertex="1">
          <mxGeometry x="200" y="220" width="80" height="30" as="geometry" />
        </mxCell>
      </root>
    </mxGraphModel>
  </diagram>
</mxfile>
